ISO-10303-21;
HEADER;
/* Generated by software containing ST-Developer
 * from STEP Tools, Inc. (www.steptools.com) 
 */

FILE_DESCRIPTION(
/* description */ (''),
/* implementation_level */ '2;1');

FILE_NAME(
/* name */ 'Draw_Pen_step.stp',
/* time_stamp */ '2026-06-13T13:08:28+07:00',
/* author */ ('MSI'),
/* organization */ (''),
/* preprocessor_version */ 'ST-DEVELOPER v20',
/* originating_system */ 'Autodesk Inventor 2025',
/* authorisation */ '');

FILE_SCHEMA (('AUTOMOTIVE_DESIGN { 1 0 10303 214 3 1 1 }'));
ENDSEC;

DATA;
#10=MECHANICAL_DESIGN_GEOMETRIC_PRESENTATION_REPRESENTATION('',(#16),#712);
#11=GEOMETRICALLY_BOUNDED_WIREFRAME_SHAPE_REPRESENTATION('',(#12),#711);
#12=GEOMETRIC_CURVE_SET('Sketch4',(#708));
#13=SHAPE_REPRESENTATION_RELATIONSHIP('SRR','None',#719,#15);
#14=SHAPE_REPRESENTATION_RELATIONSHIP('SRR','None',#719,#11);
#15=ADVANCED_BREP_SHAPE_REPRESENTATION('',(#17),#711);
#16=STYLED_ITEM('',(#728),#17);
#17=MANIFOLD_SOLID_BREP('Solid3',#406);
#18=FACE_BOUND('',#63,.T.);
#19=FACE_BOUND('',#80,.T.);
#20=FACE_BOUND('',#81,.T.);
#21=FACE_BOUND('',#82,.T.);
#22=FACE_BOUND('',#83,.T.);
#23=FACE_BOUND('',#84,.T.);
#24=FACE_BOUND('',#86,.T.);
#25=FACE_BOUND('',#87,.T.);
#26=FACE_BOUND('',#88,.T.);
#27=FACE_BOUND('',#89,.T.);
#28=FACE_BOUND('',#90,.T.);
#29=PLANE('',#438);
#30=PLANE('',#448);
#31=PLANE('',#452);
#32=PLANE('',#456);
#33=PLANE('',#460);
#34=PLANE('',#464);
#35=PLANE('',#468);
#36=PLANE('',#472);
#37=PLANE('',#473);
#38=FACE_OUTER_BOUND('',#59,.T.);
#39=FACE_OUTER_BOUND('',#60,.T.);
#40=FACE_OUTER_BOUND('',#61,.T.);
#41=FACE_OUTER_BOUND('',#62,.T.);
#42=FACE_OUTER_BOUND('',#64,.T.);
#43=FACE_OUTER_BOUND('',#65,.T.);
#44=FACE_OUTER_BOUND('',#66,.T.);
#45=FACE_OUTER_BOUND('',#67,.T.);
#46=FACE_OUTER_BOUND('',#68,.T.);
#47=FACE_OUTER_BOUND('',#69,.T.);
#48=FACE_OUTER_BOUND('',#70,.T.);
#49=FACE_OUTER_BOUND('',#71,.T.);
#50=FACE_OUTER_BOUND('',#72,.T.);
#51=FACE_OUTER_BOUND('',#73,.T.);
#52=FACE_OUTER_BOUND('',#74,.T.);
#53=FACE_OUTER_BOUND('',#75,.T.);
#54=FACE_OUTER_BOUND('',#76,.T.);
#55=FACE_OUTER_BOUND('',#77,.T.);
#56=FACE_OUTER_BOUND('',#78,.T.);
#57=FACE_OUTER_BOUND('',#79,.T.);
#58=FACE_OUTER_BOUND('',#85,.T.);
#59=EDGE_LOOP('',(#265,#266,#267,#268));
#60=EDGE_LOOP('',(#269,#270,#271,#272));
#61=EDGE_LOOP('',(#273,#274,#275,#276));
#62=EDGE_LOOP('',(#277));
#63=EDGE_LOOP('',(#278));
#64=EDGE_LOOP('',(#279,#280,#281,#282));
#65=EDGE_LOOP('',(#283,#284,#285,#286));
#66=EDGE_LOOP('',(#287,#288,#289,#290));
#67=EDGE_LOOP('',(#291,#292,#293,#294));
#68=EDGE_LOOP('',(#295,#296,#297,#298));
#69=EDGE_LOOP('',(#299,#300,#301,#302));
#70=EDGE_LOOP('',(#303,#304,#305,#306));
#71=EDGE_LOOP('',(#307,#308,#309,#310));
#72=EDGE_LOOP('',(#311,#312,#313,#314));
#73=EDGE_LOOP('',(#315,#316,#317,#318));
#74=EDGE_LOOP('',(#319,#320,#321,#322));
#75=EDGE_LOOP('',(#323,#324,#325,#326));
#76=EDGE_LOOP('',(#327,#328,#329,#330));
#77=EDGE_LOOP('',(#331,#332,#333,#334));
#78=EDGE_LOOP('',(#335,#336,#337,#338));
#79=EDGE_LOOP('',(#339,#340,#341,#342,#343,#344,#345,#346,#347,#348,#349,
#350));
#80=EDGE_LOOP('',(#351));
#81=EDGE_LOOP('',(#352));
#82=EDGE_LOOP('',(#353));
#83=EDGE_LOOP('',(#354));
#84=EDGE_LOOP('',(#355));
#85=EDGE_LOOP('',(#356,#357,#358,#359,#360,#361,#362,#363,#364,#365,#366,
#367));
#86=EDGE_LOOP('',(#368));
#87=EDGE_LOOP('',(#369));
#88=EDGE_LOOP('',(#370));
#89=EDGE_LOOP('',(#371));
#90=EDGE_LOOP('',(#372));
#91=LINE('',#601,#121);
#92=LINE('',#607,#122);
#93=LINE('',#613,#123);
#94=LINE('',#620,#124);
#95=LINE('',#626,#125);
#96=LINE('',#632,#126);
#97=LINE('',#637,#127);
#98=LINE('',#639,#128);
#99=LINE('',#641,#129);
#100=LINE('',#642,#130);
#101=LINE('',#648,#131);
#102=LINE('',#651,#132);
#103=LINE('',#653,#133);
#104=LINE('',#654,#134);
#105=LINE('',#660,#135);
#106=LINE('',#663,#136);
#107=LINE('',#665,#137);
#108=LINE('',#666,#138);
#109=LINE('',#672,#139);
#110=LINE('',#675,#140);
#111=LINE('',#677,#141);
#112=LINE('',#678,#142);
#113=LINE('',#684,#143);
#114=LINE('',#687,#144);
#115=LINE('',#689,#145);
#116=LINE('',#690,#146);
#117=LINE('',#696,#147);
#118=LINE('',#699,#148);
#119=LINE('',#701,#149);
#120=LINE('',#702,#150);
#121=VECTOR('',#480,7.5);
#122=VECTOR('',#487,5.);
#123=VECTOR('',#494,4.);
#124=VECTOR('',#503,1.6);
#125=VECTOR('',#510,1.6);
#126=VECTOR('',#517,1.6);
#127=VECTOR('',#522,10.);
#128=VECTOR('',#523,10.);
#129=VECTOR('',#524,10.);
#130=VECTOR('',#525,10.);
#131=VECTOR('',#532,10.);
#132=VECTOR('',#535,10.);
#133=VECTOR('',#536,10.);
#134=VECTOR('',#537,10.);
#135=VECTOR('',#544,10.);
#136=VECTOR('',#547,10.);
#137=VECTOR('',#548,10.);
#138=VECTOR('',#549,10.);
#139=VECTOR('',#556,10.);
#140=VECTOR('',#559,10.);
#141=VECTOR('',#560,10.);
#142=VECTOR('',#561,10.);
#143=VECTOR('',#568,10.);
#144=VECTOR('',#571,10.);
#145=VECTOR('',#572,10.);
#146=VECTOR('',#573,10.);
#147=VECTOR('',#580,10.);
#148=VECTOR('',#583,10.);
#149=VECTOR('',#584,10.);
#150=VECTOR('',#585,10.);
#151=CIRCLE('',#430,7.5);
#152=CIRCLE('',#431,7.5);
#153=CIRCLE('',#433,5.);
#154=CIRCLE('',#434,5.);
#155=CIRCLE('',#436,4.);
#156=CIRCLE('',#437,4.);
#157=CIRCLE('',#440,1.6);
#158=CIRCLE('',#441,1.6);
#159=CIRCLE('',#443,1.6);
#160=CIRCLE('',#444,1.6);
#161=CIRCLE('',#446,1.6);
#162=CIRCLE('',#447,1.6);
#163=CIRCLE('',#450,2.00000000000001);
#164=CIRCLE('',#451,2.00000000000001);
#165=CIRCLE('',#454,2.);
#166=CIRCLE('',#455,2.);
#167=CIRCLE('',#458,2.00000000000001);
#168=CIRCLE('',#459,2.00000000000001);
#169=CIRCLE('',#462,2.00000000000001);
#170=CIRCLE('',#463,2.00000000000001);
#171=CIRCLE('',#466,1.99999999999999);
#172=CIRCLE('',#467,1.99999999999999);
#173=CIRCLE('',#470,2.00000000000002);
#174=CIRCLE('',#471,2.00000000000002);
#175=VERTEX_POINT('',#598);
#176=VERTEX_POINT('',#600);
#177=VERTEX_POINT('',#604);
#178=VERTEX_POINT('',#606);
#179=VERTEX_POINT('',#610);
#180=VERTEX_POINT('',#612);
#181=VERTEX_POINT('',#617);
#182=VERTEX_POINT('',#619);
#183=VERTEX_POINT('',#623);
#184=VERTEX_POINT('',#625);
#185=VERTEX_POINT('',#629);
#186=VERTEX_POINT('',#631);
#187=VERTEX_POINT('',#635);
#188=VERTEX_POINT('',#636);
#189=VERTEX_POINT('',#638);
#190=VERTEX_POINT('',#640);
#191=VERTEX_POINT('',#644);
#192=VERTEX_POINT('',#646);
#193=VERTEX_POINT('',#650);
#194=VERTEX_POINT('',#652);
#195=VERTEX_POINT('',#656);
#196=VERTEX_POINT('',#658);
#197=VERTEX_POINT('',#662);
#198=VERTEX_POINT('',#664);
#199=VERTEX_POINT('',#668);
#200=VERTEX_POINT('',#670);
#201=VERTEX_POINT('',#674);
#202=VERTEX_POINT('',#676);
#203=VERTEX_POINT('',#680);
#204=VERTEX_POINT('',#682);
#205=VERTEX_POINT('',#686);
#206=VERTEX_POINT('',#688);
#207=VERTEX_POINT('',#692);
#208=VERTEX_POINT('',#694);
#209=VERTEX_POINT('',#698);
#210=VERTEX_POINT('',#700);
#211=EDGE_CURVE('',#175,#175,#151,.T.);
#212=EDGE_CURVE('',#175,#176,#91,.T.);
#213=EDGE_CURVE('',#176,#176,#152,.T.);
#214=EDGE_CURVE('',#177,#177,#153,.T.);
#215=EDGE_CURVE('',#177,#178,#92,.T.);
#216=EDGE_CURVE('',#178,#178,#154,.T.);
#217=EDGE_CURVE('',#179,#179,#155,.T.);
#218=EDGE_CURVE('',#179,#180,#93,.T.);
#219=EDGE_CURVE('',#180,#180,#156,.T.);
#220=EDGE_CURVE('',#181,#181,#157,.T.);
#221=EDGE_CURVE('',#181,#182,#94,.T.);
#222=EDGE_CURVE('',#182,#182,#158,.T.);
#223=EDGE_CURVE('',#183,#183,#159,.T.);
#224=EDGE_CURVE('',#183,#184,#95,.T.);
#225=EDGE_CURVE('',#184,#184,#160,.T.);
#226=EDGE_CURVE('',#185,#185,#161,.T.);
#227=EDGE_CURVE('',#185,#186,#96,.T.);
#228=EDGE_CURVE('',#186,#186,#162,.T.);
#229=EDGE_CURVE('',#187,#188,#97,.T.);
#230=EDGE_CURVE('',#188,#189,#98,.T.);
#231=EDGE_CURVE('',#190,#189,#99,.T.);
#232=EDGE_CURVE('',#187,#190,#100,.T.);
#233=EDGE_CURVE('',#191,#187,#163,.T.);
#234=EDGE_CURVE('',#192,#190,#164,.T.);
#235=EDGE_CURVE('',#191,#192,#101,.T.);
#236=EDGE_CURVE('',#193,#191,#102,.T.);
#237=EDGE_CURVE('',#194,#192,#103,.T.);
#238=EDGE_CURVE('',#193,#194,#104,.T.);
#239=EDGE_CURVE('',#195,#193,#165,.T.);
#240=EDGE_CURVE('',#196,#194,#166,.T.);
#241=EDGE_CURVE('',#195,#196,#105,.T.);
#242=EDGE_CURVE('',#197,#195,#106,.T.);
#243=EDGE_CURVE('',#198,#196,#107,.T.);
#244=EDGE_CURVE('',#197,#198,#108,.T.);
#245=EDGE_CURVE('',#199,#197,#167,.T.);
#246=EDGE_CURVE('',#200,#198,#168,.T.);
#247=EDGE_CURVE('',#199,#200,#109,.T.);
#248=EDGE_CURVE('',#201,#199,#110,.T.);
#249=EDGE_CURVE('',#202,#200,#111,.T.);
#250=EDGE_CURVE('',#201,#202,#112,.T.);
#251=EDGE_CURVE('',#203,#201,#169,.T.);
#252=EDGE_CURVE('',#204,#202,#170,.T.);
#253=EDGE_CURVE('',#203,#204,#113,.T.);
#254=EDGE_CURVE('',#205,#203,#114,.T.);
#255=EDGE_CURVE('',#206,#204,#115,.T.);
#256=EDGE_CURVE('',#205,#206,#116,.T.);
#257=EDGE_CURVE('',#207,#205,#171,.T.);
#258=EDGE_CURVE('',#208,#206,#172,.T.);
#259=EDGE_CURVE('',#207,#208,#117,.T.);
#260=EDGE_CURVE('',#209,#207,#118,.T.);
#261=EDGE_CURVE('',#210,#208,#119,.T.);
#262=EDGE_CURVE('',#209,#210,#120,.T.);
#263=EDGE_CURVE('',#188,#209,#173,.T.);
#264=EDGE_CURVE('',#189,#210,#174,.T.);
#265=ORIENTED_EDGE('',*,*,#211,.F.);
#266=ORIENTED_EDGE('',*,*,#212,.T.);
#267=ORIENTED_EDGE('',*,*,#213,.F.);
#268=ORIENTED_EDGE('',*,*,#212,.F.);
#269=ORIENTED_EDGE('',*,*,#214,.F.);
#270=ORIENTED_EDGE('',*,*,#215,.T.);
#271=ORIENTED_EDGE('',*,*,#216,.F.);
#272=ORIENTED_EDGE('',*,*,#215,.F.);
#273=ORIENTED_EDGE('',*,*,#217,.F.);
#274=ORIENTED_EDGE('',*,*,#218,.T.);
#275=ORIENTED_EDGE('',*,*,#219,.T.);
#276=ORIENTED_EDGE('',*,*,#218,.F.);
#277=ORIENTED_EDGE('',*,*,#214,.T.);
#278=ORIENTED_EDGE('',*,*,#217,.T.);
#279=ORIENTED_EDGE('',*,*,#220,.F.);
#280=ORIENTED_EDGE('',*,*,#221,.T.);
#281=ORIENTED_EDGE('',*,*,#222,.T.);
#282=ORIENTED_EDGE('',*,*,#221,.F.);
#283=ORIENTED_EDGE('',*,*,#223,.F.);
#284=ORIENTED_EDGE('',*,*,#224,.T.);
#285=ORIENTED_EDGE('',*,*,#225,.T.);
#286=ORIENTED_EDGE('',*,*,#224,.F.);
#287=ORIENTED_EDGE('',*,*,#226,.F.);
#288=ORIENTED_EDGE('',*,*,#227,.T.);
#289=ORIENTED_EDGE('',*,*,#228,.T.);
#290=ORIENTED_EDGE('',*,*,#227,.F.);
#291=ORIENTED_EDGE('',*,*,#229,.T.);
#292=ORIENTED_EDGE('',*,*,#230,.T.);
#293=ORIENTED_EDGE('',*,*,#231,.F.);
#294=ORIENTED_EDGE('',*,*,#232,.F.);
#295=ORIENTED_EDGE('',*,*,#233,.T.);
#296=ORIENTED_EDGE('',*,*,#232,.T.);
#297=ORIENTED_EDGE('',*,*,#234,.F.);
#298=ORIENTED_EDGE('',*,*,#235,.F.);
#299=ORIENTED_EDGE('',*,*,#236,.T.);
#300=ORIENTED_EDGE('',*,*,#235,.T.);
#301=ORIENTED_EDGE('',*,*,#237,.F.);
#302=ORIENTED_EDGE('',*,*,#238,.F.);
#303=ORIENTED_EDGE('',*,*,#239,.T.);
#304=ORIENTED_EDGE('',*,*,#238,.T.);
#305=ORIENTED_EDGE('',*,*,#240,.F.);
#306=ORIENTED_EDGE('',*,*,#241,.F.);
#307=ORIENTED_EDGE('',*,*,#242,.T.);
#308=ORIENTED_EDGE('',*,*,#241,.T.);
#309=ORIENTED_EDGE('',*,*,#243,.F.);
#310=ORIENTED_EDGE('',*,*,#244,.F.);
#311=ORIENTED_EDGE('',*,*,#245,.T.);
#312=ORIENTED_EDGE('',*,*,#244,.T.);
#313=ORIENTED_EDGE('',*,*,#246,.F.);
#314=ORIENTED_EDGE('',*,*,#247,.F.);
#315=ORIENTED_EDGE('',*,*,#248,.T.);
#316=ORIENTED_EDGE('',*,*,#247,.T.);
#317=ORIENTED_EDGE('',*,*,#249,.F.);
#318=ORIENTED_EDGE('',*,*,#250,.F.);
#319=ORIENTED_EDGE('',*,*,#251,.T.);
#320=ORIENTED_EDGE('',*,*,#250,.T.);
#321=ORIENTED_EDGE('',*,*,#252,.F.);
#322=ORIENTED_EDGE('',*,*,#253,.F.);
#323=ORIENTED_EDGE('',*,*,#254,.T.);
#324=ORIENTED_EDGE('',*,*,#253,.T.);
#325=ORIENTED_EDGE('',*,*,#255,.F.);
#326=ORIENTED_EDGE('',*,*,#256,.F.);
#327=ORIENTED_EDGE('',*,*,#257,.T.);
#328=ORIENTED_EDGE('',*,*,#256,.T.);
#329=ORIENTED_EDGE('',*,*,#258,.F.);
#330=ORIENTED_EDGE('',*,*,#259,.F.);
#331=ORIENTED_EDGE('',*,*,#260,.T.);
#332=ORIENTED_EDGE('',*,*,#259,.T.);
#333=ORIENTED_EDGE('',*,*,#261,.F.);
#334=ORIENTED_EDGE('',*,*,#262,.F.);
#335=ORIENTED_EDGE('',*,*,#263,.T.);
#336=ORIENTED_EDGE('',*,*,#262,.T.);
#337=ORIENTED_EDGE('',*,*,#264,.F.);
#338=ORIENTED_EDGE('',*,*,#230,.F.);
#339=ORIENTED_EDGE('',*,*,#264,.T.);
#340=ORIENTED_EDGE('',*,*,#261,.T.);
#341=ORIENTED_EDGE('',*,*,#258,.T.);
#342=ORIENTED_EDGE('',*,*,#255,.T.);
#343=ORIENTED_EDGE('',*,*,#252,.T.);
#344=ORIENTED_EDGE('',*,*,#249,.T.);
#345=ORIENTED_EDGE('',*,*,#246,.T.);
#346=ORIENTED_EDGE('',*,*,#243,.T.);
#347=ORIENTED_EDGE('',*,*,#240,.T.);
#348=ORIENTED_EDGE('',*,*,#237,.T.);
#349=ORIENTED_EDGE('',*,*,#234,.T.);
#350=ORIENTED_EDGE('',*,*,#231,.T.);
#351=ORIENTED_EDGE('',*,*,#211,.T.);
#352=ORIENTED_EDGE('',*,*,#226,.T.);
#353=ORIENTED_EDGE('',*,*,#216,.T.);
#354=ORIENTED_EDGE('',*,*,#223,.T.);
#355=ORIENTED_EDGE('',*,*,#220,.T.);
#356=ORIENTED_EDGE('',*,*,#263,.F.);
#357=ORIENTED_EDGE('',*,*,#229,.F.);
#358=ORIENTED_EDGE('',*,*,#233,.F.);
#359=ORIENTED_EDGE('',*,*,#236,.F.);
#360=ORIENTED_EDGE('',*,*,#239,.F.);
#361=ORIENTED_EDGE('',*,*,#242,.F.);
#362=ORIENTED_EDGE('',*,*,#245,.F.);
#363=ORIENTED_EDGE('',*,*,#248,.F.);
#364=ORIENTED_EDGE('',*,*,#251,.F.);
#365=ORIENTED_EDGE('',*,*,#254,.F.);
#366=ORIENTED_EDGE('',*,*,#257,.F.);
#367=ORIENTED_EDGE('',*,*,#260,.F.);
#368=ORIENTED_EDGE('',*,*,#213,.T.);
#369=ORIENTED_EDGE('',*,*,#219,.F.);
#370=ORIENTED_EDGE('',*,*,#228,.F.);
#371=ORIENTED_EDGE('',*,*,#225,.F.);
#372=ORIENTED_EDGE('',*,*,#222,.F.);
#373=CYLINDRICAL_SURFACE('',#429,7.5);
#374=CYLINDRICAL_SURFACE('',#432,5.);
#375=CYLINDRICAL_SURFACE('',#435,4.);
#376=CYLINDRICAL_SURFACE('',#439,1.6);
#377=CYLINDRICAL_SURFACE('',#442,1.6);
#378=CYLINDRICAL_SURFACE('',#445,1.6);
#379=CYLINDRICAL_SURFACE('',#449,2.00000000000001);
#380=CYLINDRICAL_SURFACE('',#453,2.);
#381=CYLINDRICAL_SURFACE('',#457,2.00000000000001);
#382=CYLINDRICAL_SURFACE('',#461,2.00000000000001);
#383=CYLINDRICAL_SURFACE('',#465,1.99999999999999);
#384=CYLINDRICAL_SURFACE('',#469,2.00000000000002);
#385=ADVANCED_FACE('',(#38),#373,.F.);
#386=ADVANCED_FACE('',(#39),#374,.T.);
#387=ADVANCED_FACE('',(#40),#375,.F.);
#388=ADVANCED_FACE('',(#41,#18),#29,.T.);
#389=ADVANCED_FACE('',(#42),#376,.F.);
#390=ADVANCED_FACE('',(#43),#377,.F.);
#391=ADVANCED_FACE('',(#44),#378,.F.);
#392=ADVANCED_FACE('',(#45),#30,.T.);
#393=ADVANCED_FACE('',(#46),#379,.T.);
#394=ADVANCED_FACE('',(#47),#31,.T.);
#395=ADVANCED_FACE('',(#48),#380,.T.);
#396=ADVANCED_FACE('',(#49),#32,.T.);
#397=ADVANCED_FACE('',(#50),#381,.T.);
#398=ADVANCED_FACE('',(#51),#33,.T.);
#399=ADVANCED_FACE('',(#52),#382,.T.);
#400=ADVANCED_FACE('',(#53),#34,.T.);
#401=ADVANCED_FACE('',(#54),#383,.T.);
#402=ADVANCED_FACE('',(#55),#35,.T.);
#403=ADVANCED_FACE('',(#56),#384,.T.);
#404=ADVANCED_FACE('',(#57,#19,#20,#21,#22,#23),#36,.T.);
#405=ADVANCED_FACE('',(#58,#24,#25,#26,#27,#28),#37,.F.);
#406=CLOSED_SHELL('',(#385,#386,#387,#388,#389,#390,#391,#392,#393,#394,
#395,#396,#397,#398,#399,#400,#401,#402,#403,#404,#405));
#407=DERIVED_UNIT_ELEMENT(#410,1.);
#408=DERIVED_UNIT_ELEMENT(#714,-3.);
#409=DIMENSIONAL_EXPONENTS(0.,1.,0.,0.,0.,0.,0.);
#410=(
CONVERSION_BASED_UNIT('gram',#412)
MASS_UNIT()
NAMED_UNIT(#409)
);
#411=(
MASS_UNIT()
NAMED_UNIT(*)
SI_UNIT(.KILO.,.GRAM.)
);
#412=MASS_MEASURE_WITH_UNIT(MASS_MEASURE(0.001),#411);
#413=DERIVED_UNIT((#407,#408));
#414=MEASURE_REPRESENTATION_ITEM('density measure',
POSITIVE_RATIO_MEASURE(1.),#413);
#415=PROPERTY_DEFINITION_REPRESENTATION(#420,#417);
#416=PROPERTY_DEFINITION_REPRESENTATION(#421,#418);
#417=REPRESENTATION('material name',(#419),#711);
#418=REPRESENTATION('density',(#414),#711);
#419=DESCRIPTIVE_REPRESENTATION_ITEM('Generic','Generic');
#420=PROPERTY_DEFINITION('material property','material name',#721);
#421=PROPERTY_DEFINITION('material property','density of part',#721);
#422=DATE_TIME_ROLE('creation_date');
#423=APPLIED_DATE_AND_TIME_ASSIGNMENT(#424,#422,(#721));
#424=DATE_AND_TIME(#425,#426);
#425=CALENDAR_DATE(2026,13,6);
#426=LOCAL_TIME(0,0,0.,#427);
#427=COORDINATED_UNIVERSAL_TIME_OFFSET(0,0,.BEHIND.);
#428=AXIS2_PLACEMENT_3D('',#596,#474,#475);
#429=AXIS2_PLACEMENT_3D('',#597,#476,#477);
#430=AXIS2_PLACEMENT_3D('',#599,#478,#479);
#431=AXIS2_PLACEMENT_3D('',#602,#481,#482);
#432=AXIS2_PLACEMENT_3D('',#603,#483,#484);
#433=AXIS2_PLACEMENT_3D('',#605,#485,#486);
#434=AXIS2_PLACEMENT_3D('',#608,#488,#489);
#435=AXIS2_PLACEMENT_3D('',#609,#490,#491);
#436=AXIS2_PLACEMENT_3D('',#611,#492,#493);
#437=AXIS2_PLACEMENT_3D('',#614,#495,#496);
#438=AXIS2_PLACEMENT_3D('',#615,#497,#498);
#439=AXIS2_PLACEMENT_3D('',#616,#499,#500);
#440=AXIS2_PLACEMENT_3D('',#618,#501,#502);
#441=AXIS2_PLACEMENT_3D('',#621,#504,#505);
#442=AXIS2_PLACEMENT_3D('',#622,#506,#507);
#443=AXIS2_PLACEMENT_3D('',#624,#508,#509);
#444=AXIS2_PLACEMENT_3D('',#627,#511,#512);
#445=AXIS2_PLACEMENT_3D('',#628,#513,#514);
#446=AXIS2_PLACEMENT_3D('',#630,#515,#516);
#447=AXIS2_PLACEMENT_3D('',#633,#518,#519);
#448=AXIS2_PLACEMENT_3D('',#634,#520,#521);
#449=AXIS2_PLACEMENT_3D('',#643,#526,#527);
#450=AXIS2_PLACEMENT_3D('',#645,#528,#529);
#451=AXIS2_PLACEMENT_3D('',#647,#530,#531);
#452=AXIS2_PLACEMENT_3D('',#649,#533,#534);
#453=AXIS2_PLACEMENT_3D('',#655,#538,#539);
#454=AXIS2_PLACEMENT_3D('',#657,#540,#541);
#455=AXIS2_PLACEMENT_3D('',#659,#542,#543);
#456=AXIS2_PLACEMENT_3D('',#661,#545,#546);
#457=AXIS2_PLACEMENT_3D('',#667,#550,#551);
#458=AXIS2_PLACEMENT_3D('',#669,#552,#553);
#459=AXIS2_PLACEMENT_3D('',#671,#554,#555);
#460=AXIS2_PLACEMENT_3D('',#673,#557,#558);
#461=AXIS2_PLACEMENT_3D('',#679,#562,#563);
#462=AXIS2_PLACEMENT_3D('',#681,#564,#565);
#463=AXIS2_PLACEMENT_3D('',#683,#566,#567);
#464=AXIS2_PLACEMENT_3D('',#685,#569,#570);
#465=AXIS2_PLACEMENT_3D('',#691,#574,#575);
#466=AXIS2_PLACEMENT_3D('',#693,#576,#577);
#467=AXIS2_PLACEMENT_3D('',#695,#578,#579);
#468=AXIS2_PLACEMENT_3D('',#697,#581,#582);
#469=AXIS2_PLACEMENT_3D('',#703,#586,#587);
#470=AXIS2_PLACEMENT_3D('',#704,#588,#589);
#471=AXIS2_PLACEMENT_3D('',#705,#590,#591);
#472=AXIS2_PLACEMENT_3D('',#706,#592,#593);
#473=AXIS2_PLACEMENT_3D('',#707,#594,#595);
#474=DIRECTION('axis',(0.,0.,1.));
#475=DIRECTION('refdir',(1.,0.,0.));
#476=DIRECTION('center_axis',(0.,-1.,0.));
#477=DIRECTION('ref_axis',(1.,0.,0.));
#478=DIRECTION('center_axis',(0.,-1.,0.));
#479=DIRECTION('ref_axis',(1.,0.,0.));
#480=DIRECTION('',(0.,-1.,0.));
#481=DIRECTION('center_axis',(0.,1.,0.));
#482=DIRECTION('ref_axis',(1.,0.,0.));
#483=DIRECTION('center_axis',(0.,1.,0.));
#484=DIRECTION('ref_axis',(-1.,0.,0.));
#485=DIRECTION('center_axis',(0.,1.,0.));
#486=DIRECTION('ref_axis',(-1.,0.,0.));
#487=DIRECTION('',(0.,-1.,0.));
#488=DIRECTION('center_axis',(0.,-1.,0.));
#489=DIRECTION('ref_axis',(1.,0.,0.));
#490=DIRECTION('center_axis',(0.,1.,0.));
#491=DIRECTION('ref_axis',(1.,0.,0.));
#492=DIRECTION('center_axis',(0.,-1.,0.));
#493=DIRECTION('ref_axis',(1.,0.,0.));
#494=DIRECTION('',(0.,-1.,0.));
#495=DIRECTION('center_axis',(0.,-1.,0.));
#496=DIRECTION('ref_axis',(1.,0.,0.));
#497=DIRECTION('center_axis',(0.,1.,0.));
#498=DIRECTION('ref_axis',(0.,0.,1.));
#499=DIRECTION('center_axis',(0.,1.,0.));
#500=DIRECTION('ref_axis',(1.,0.,0.));
#501=DIRECTION('center_axis',(0.,-1.,0.));
#502=DIRECTION('ref_axis',(1.,0.,0.));
#503=DIRECTION('',(0.,-1.,0.));
#504=DIRECTION('center_axis',(0.,-1.,0.));
#505=DIRECTION('ref_axis',(1.,0.,0.));
#506=DIRECTION('center_axis',(0.,1.,0.));
#507=DIRECTION('ref_axis',(1.,0.,0.));
#508=DIRECTION('center_axis',(0.,-1.,0.));
#509=DIRECTION('ref_axis',(1.,0.,0.));
#510=DIRECTION('',(0.,-1.,0.));
#511=DIRECTION('center_axis',(0.,-1.,0.));
#512=DIRECTION('ref_axis',(1.,0.,0.));
#513=DIRECTION('center_axis',(0.,1.,0.));
#514=DIRECTION('ref_axis',(1.,0.,0.));
#515=DIRECTION('center_axis',(0.,-1.,0.));
#516=DIRECTION('ref_axis',(1.,0.,0.));
#517=DIRECTION('',(0.,-1.,0.));
#518=DIRECTION('center_axis',(0.,-1.,0.));
#519=DIRECTION('ref_axis',(1.,0.,0.));
#520=DIRECTION('center_axis',(4.60430744384333E-16,0.,1.));
#521=DIRECTION('ref_axis',(1.,0.,-4.60430744384333E-16));
#522=DIRECTION('',(1.,0.,-4.60430744384333E-16));
#523=DIRECTION('',(0.,1.,0.));
#524=DIRECTION('',(1.,0.,-4.60430744384333E-16));
#525=DIRECTION('',(0.,1.,0.));
#526=DIRECTION('center_axis',(0.,1.,0.));
#527=DIRECTION('ref_axis',(-0.866025403784438,0.,0.500000000000001));
#528=DIRECTION('center_axis',(0.,1.,0.));
#529=DIRECTION('ref_axis',(-0.866025403784438,0.,0.500000000000001));
#530=DIRECTION('center_axis',(0.,1.,0.));
#531=DIRECTION('ref_axis',(-0.866025403784438,0.,0.500000000000001));
#532=DIRECTION('',(0.,1.,0.));
#533=DIRECTION('center_axis',(-0.866025403784439,0.,0.5));
#534=DIRECTION('ref_axis',(0.5,0.,0.866025403784438));
#535=DIRECTION('',(0.5,0.,0.866025403784438));
#536=DIRECTION('',(0.5,0.,0.866025403784438));
#537=DIRECTION('',(0.,1.,0.));
#538=DIRECTION('center_axis',(0.,1.,0.));
#539=DIRECTION('ref_axis',(-0.866025403784437,0.,-0.500000000000002));
#540=DIRECTION('center_axis',(0.,1.,0.));
#541=DIRECTION('ref_axis',(-0.866025403784437,0.,-0.500000000000002));
#542=DIRECTION('center_axis',(0.,1.,0.));
#543=DIRECTION('ref_axis',(-0.866025403784437,0.,-0.500000000000002));
#544=DIRECTION('',(0.,1.,0.));
#545=DIRECTION('center_axis',(-0.866025403784439,0.,-0.499999999999999));
#546=DIRECTION('ref_axis',(-0.499999999999999,0.,0.866025403784439));
#547=DIRECTION('',(-0.499999999999999,0.,0.866025403784439));
#548=DIRECTION('',(-0.499999999999999,0.,0.866025403784439));
#549=DIRECTION('',(0.,1.,0.));
#550=DIRECTION('center_axis',(0.,1.,0.));
#551=DIRECTION('ref_axis',(-3.33066907387545E-15,0.,-1.));
#552=DIRECTION('center_axis',(0.,1.,0.));
#553=DIRECTION('ref_axis',(-3.33066907387545E-15,0.,-1.));
#554=DIRECTION('center_axis',(0.,1.,0.));
#555=DIRECTION('ref_axis',(-3.33066907387545E-15,0.,-1.));
#556=DIRECTION('',(0.,1.,0.));
#557=DIRECTION('center_axis',(1.22842862409176E-15,0.,-1.));
#558=DIRECTION('ref_axis',(-1.,0.,-1.22842862409176E-15));
#559=DIRECTION('',(-1.,0.,-1.22842862409176E-15));
#560=DIRECTION('',(-1.,0.,-1.22842862409176E-15));
#561=DIRECTION('',(0.,1.,0.));
#562=DIRECTION('center_axis',(0.,1.,0.));
#563=DIRECTION('ref_axis',(0.866025403784439,0.,-0.5));
#564=DIRECTION('center_axis',(0.,1.,0.));
#565=DIRECTION('ref_axis',(0.866025403784439,0.,-0.5));
#566=DIRECTION('center_axis',(0.,1.,0.));
#567=DIRECTION('ref_axis',(0.866025403784439,0.,-0.5));
#568=DIRECTION('',(0.,1.,0.));
#569=DIRECTION('center_axis',(0.866025403784438,0.,-0.500000000000001));
#570=DIRECTION('ref_axis',(-0.500000000000001,0.,-0.866025403784438));
#571=DIRECTION('',(-0.500000000000001,0.,-0.866025403784438));
#572=DIRECTION('',(-0.500000000000001,0.,-0.866025403784438));
#573=DIRECTION('',(0.,1.,0.));
#574=DIRECTION('center_axis',(0.,1.,0.));
#575=DIRECTION('ref_axis',(0.866025403784437,0.,0.500000000000004));
#576=DIRECTION('center_axis',(0.,1.,0.));
#577=DIRECTION('ref_axis',(0.866025403784437,0.,0.500000000000004));
#578=DIRECTION('center_axis',(0.,1.,0.));
#579=DIRECTION('ref_axis',(0.866025403784437,0.,0.500000000000004));
#580=DIRECTION('',(0.,1.,0.));
#581=DIRECTION('center_axis',(0.866025403784438,0.,0.500000000000001));
#582=DIRECTION('ref_axis',(0.500000000000001,0.,-0.866025403784438));
#583=DIRECTION('',(0.500000000000001,0.,-0.866025403784438));
#584=DIRECTION('',(0.500000000000001,0.,-0.866025403784438));
#585=DIRECTION('',(0.,1.,0.));
#586=DIRECTION('center_axis',(0.,1.,0.));
#587=DIRECTION('ref_axis',(5.55111512312573E-15,0.,1.));
#588=DIRECTION('center_axis',(0.,1.,0.));
#589=DIRECTION('ref_axis',(5.55111512312573E-15,0.,1.));
#590=DIRECTION('center_axis',(0.,1.,0.));
#591=DIRECTION('ref_axis',(5.55111512312573E-15,0.,1.));
#592=DIRECTION('center_axis',(0.,1.,0.));
#593=DIRECTION('ref_axis',(0.,0.,1.));
#594=DIRECTION('center_axis',(0.,1.,0.));
#595=DIRECTION('ref_axis',(0.,0.,1.));
#596=CARTESIAN_POINT('',(0.,0.,0.));
#597=CARTESIAN_POINT('Origin',(0.,3.,-20.));
#598=CARTESIAN_POINT('',(-7.5,3.,-20.));
#599=CARTESIAN_POINT('Origin',(0.,3.,-20.));
#600=CARTESIAN_POINT('',(-7.5,0.,-20.));
#601=CARTESIAN_POINT('',(-7.5,3.,-20.));
#602=CARTESIAN_POINT('Origin',(0.,0.,-20.));
#603=CARTESIAN_POINT('Origin',(0.,0.,0.));
#604=CARTESIAN_POINT('',(5.,6.,-6.12323399573677E-16));
#605=CARTESIAN_POINT('Origin',(0.,6.,0.));
#606=CARTESIAN_POINT('',(5.,3.,-6.12323399573677E-16));
#607=CARTESIAN_POINT('',(5.,0.,-6.12323399573677E-16));
#608=CARTESIAN_POINT('Origin',(0.,3.,0.));
#609=CARTESIAN_POINT('Origin',(0.,0.,0.));
#610=CARTESIAN_POINT('',(-4.,6.,4.89858719658941E-16));
#611=CARTESIAN_POINT('Origin',(0.,6.,0.));
#612=CARTESIAN_POINT('',(-4.,0.,4.89858719658941E-16));
#613=CARTESIAN_POINT('',(-4.,0.,4.89858719658941E-16));
#614=CARTESIAN_POINT('Origin',(0.,0.,0.));
#615=CARTESIAN_POINT('Origin',(0.,6.,0.));
#616=CARTESIAN_POINT('Origin',(12.9903810567666,0.,-7.5));
#617=CARTESIAN_POINT('',(11.3903810567666,3.,-7.5));
#618=CARTESIAN_POINT('Origin',(12.9903810567666,3.,-7.5));
#619=CARTESIAN_POINT('',(11.3903810567666,0.,-7.5));
#620=CARTESIAN_POINT('',(11.3903810567666,0.,-7.5));
#621=CARTESIAN_POINT('Origin',(12.9903810567666,0.,-7.5));
#622=CARTESIAN_POINT('Origin',(-12.9903810567666,0.,-7.50000000000001));
#623=CARTESIAN_POINT('',(-14.5903810567666,3.,-7.50000000000001));
#624=CARTESIAN_POINT('Origin',(-12.9903810567666,3.,-7.50000000000001));
#625=CARTESIAN_POINT('',(-14.5903810567666,0.,-7.50000000000001));
#626=CARTESIAN_POINT('',(-14.5903810567666,0.,-7.50000000000001));
#627=CARTESIAN_POINT('Origin',(-12.9903810567666,0.,-7.50000000000001));
#628=CARTESIAN_POINT('Origin',(-1.11022302462516E-14,0.,15.));
#629=CARTESIAN_POINT('',(-1.60000000000001,3.,15.));
#630=CARTESIAN_POINT('Origin',(-1.11022302462516E-14,3.,15.));
#631=CARTESIAN_POINT('',(-1.60000000000001,0.,15.));
#632=CARTESIAN_POINT('',(-1.60000000000001,0.,15.));
#633=CARTESIAN_POINT('Origin',(-1.11022302462516E-14,0.,15.));
#634=CARTESIAN_POINT('Origin',(-19.2901631902917,0.,25.6602540378444));
#635=CARTESIAN_POINT('',(-19.2901631902917,0.,25.6602540378444));
#636=CARTESIAN_POINT('',(19.2901631902917,0.,25.6602540378443));
#637=CARTESIAN_POINT('',(-19.2901631902917,0.,25.6602540378444));
#638=CARTESIAN_POINT('',(19.2901631902917,3.,25.6602540378443));
#639=CARTESIAN_POINT('',(19.2901631902917,0.,25.6602540378443));
#640=CARTESIAN_POINT('',(-19.2901631902917,3.,25.6602540378444));
#641=CARTESIAN_POINT('',(-19.2901631902917,3.,25.6602540378444));
#642=CARTESIAN_POINT('',(-19.2901631902917,0.,25.6602540378444));
#643=CARTESIAN_POINT('Origin',(-19.2901631902917,0.,23.6602540378444));
#644=CARTESIAN_POINT('',(-21.0222139978606,0.,24.6602540378444));
#645=CARTESIAN_POINT('Origin',(-19.2901631902917,0.,23.6602540378444));
#646=CARTESIAN_POINT('',(-21.0222139978606,3.,24.6602540378444));
#647=CARTESIAN_POINT('Origin',(-19.2901631902917,3.,23.6602540378444));
#648=CARTESIAN_POINT('',(-21.0222139978606,0.,24.6602540378444));
#649=CARTESIAN_POINT('Origin',(-31.8675134594813,0.,5.87564434701788));
#650=CARTESIAN_POINT('',(-31.8675134594813,0.,5.87564434701788));
#651=CARTESIAN_POINT('',(-31.8675134594813,0.,5.87564434701788));
#652=CARTESIAN_POINT('',(-31.8675134594813,3.,5.87564434701788));
#653=CARTESIAN_POINT('',(-31.8675134594813,3.,5.87564434701788));
#654=CARTESIAN_POINT('',(-31.8675134594813,0.,5.87564434701788));
#655=CARTESIAN_POINT('Origin',(-30.1354626519124,0.,4.87564434701789));
#656=CARTESIAN_POINT('',(-31.8675134594813,0.,3.87564434701788));
#657=CARTESIAN_POINT('Origin',(-30.1354626519124,0.,4.87564434701789));
#658=CARTESIAN_POINT('',(-31.8675134594813,3.,3.87564434701788));
#659=CARTESIAN_POINT('Origin',(-30.1354626519124,3.,4.87564434701789));
#660=CARTESIAN_POINT('',(-31.8675134594813,0.,3.87564434701788));
#661=CARTESIAN_POINT('Origin',(-12.5773502691896,0.,-29.5358983848623));
#662=CARTESIAN_POINT('',(-12.5773502691896,0.,-29.5358983848623));
#663=CARTESIAN_POINT('',(-12.5773502691896,0.,-29.5358983848623));
#664=CARTESIAN_POINT('',(-12.5773502691896,3.,-29.5358983848623));
#665=CARTESIAN_POINT('',(-12.5773502691896,3.,-29.5358983848623));
#666=CARTESIAN_POINT('',(-12.5773502691896,0.,-29.5358983848623));
#667=CARTESIAN_POINT('Origin',(-10.8452994616207,0.,-28.5358983848623));
#668=CARTESIAN_POINT('',(-10.8452994616207,0.,-30.5358983848623));
#669=CARTESIAN_POINT('Origin',(-10.8452994616207,0.,-28.5358983848623));
#670=CARTESIAN_POINT('',(-10.8452994616207,3.,-30.5358983848623));
#671=CARTESIAN_POINT('Origin',(-10.8452994616207,3.,-28.5358983848623));
#672=CARTESIAN_POINT('',(-10.8452994616207,0.,-30.5358983848623));
#673=CARTESIAN_POINT('Origin',(10.8452994616207,0.,-30.5358983848622));
#674=CARTESIAN_POINT('',(10.8452994616207,0.,-30.5358983848622));
#675=CARTESIAN_POINT('',(10.8452994616207,0.,-30.5358983848622));
#676=CARTESIAN_POINT('',(10.8452994616207,3.,-30.5358983848622));
#677=CARTESIAN_POINT('',(10.8452994616207,3.,-30.5358983848622));
#678=CARTESIAN_POINT('',(10.8452994616207,0.,-30.5358983848622));
#679=CARTESIAN_POINT('Origin',(10.8452994616207,0.,-28.5358983848622));
#680=CARTESIAN_POINT('',(12.5773502691896,0.,-29.5358983848622));
#681=CARTESIAN_POINT('Origin',(10.8452994616207,0.,-28.5358983848622));
#682=CARTESIAN_POINT('',(12.5773502691896,3.,-29.5358983848622));
#683=CARTESIAN_POINT('Origin',(10.8452994616207,3.,-28.5358983848622));
#684=CARTESIAN_POINT('',(12.5773502691896,0.,-29.5358983848622));
#685=CARTESIAN_POINT('Origin',(31.8675134594813,0.,3.87564434701787));
#686=CARTESIAN_POINT('',(31.8675134594813,0.,3.87564434701787));
#687=CARTESIAN_POINT('',(31.8675134594813,0.,3.87564434701787));
#688=CARTESIAN_POINT('',(31.8675134594813,3.,3.87564434701787));
#689=CARTESIAN_POINT('',(31.8675134594813,3.,3.87564434701787));
#690=CARTESIAN_POINT('',(31.8675134594813,0.,3.87564434701787));
#691=CARTESIAN_POINT('Origin',(30.1354626519124,0.,4.87564434701787));
#692=CARTESIAN_POINT('',(31.8675134594813,0.,5.87564434701787));
#693=CARTESIAN_POINT('Origin',(30.1354626519124,0.,4.87564434701787));
#694=CARTESIAN_POINT('',(31.8675134594813,3.,5.87564434701787));
#695=CARTESIAN_POINT('Origin',(30.1354626519124,3.,4.87564434701787));
#696=CARTESIAN_POINT('',(31.8675134594813,0.,5.87564434701787));
#697=CARTESIAN_POINT('Origin',(21.0222139978605,0.,24.6602540378443));
#698=CARTESIAN_POINT('',(21.0222139978605,0.,24.6602540378443));
#699=CARTESIAN_POINT('',(21.0222139978605,0.,24.6602540378443));
#700=CARTESIAN_POINT('',(21.0222139978605,3.,24.6602540378443));
#701=CARTESIAN_POINT('',(21.0222139978605,3.,24.6602540378443));
#702=CARTESIAN_POINT('',(21.0222139978605,0.,24.6602540378443));
#703=CARTESIAN_POINT('Origin',(19.2901631902916,0.,23.6602540378443));
#704=CARTESIAN_POINT('Origin',(19.2901631902916,0.,23.6602540378443));
#705=CARTESIAN_POINT('Origin',(19.2901631902916,3.,23.6602540378443));
#706=CARTESIAN_POINT('Origin',(8.88178419700125E-15,3.,-2.43782217350895));
#707=CARTESIAN_POINT('Origin',(8.88178419700125E-15,0.,-2.43782217350895));
#708=CARTESIAN_POINT('',(0.,3.,0.));
#709=UNCERTAINTY_MEASURE_WITH_UNIT(LENGTH_MEASURE(0.01),#713,
'DISTANCE_ACCURACY_VALUE',
'Maximum model space distance between geometric entities at asserted c
onnectivities');
#710=UNCERTAINTY_MEASURE_WITH_UNIT(LENGTH_MEASURE(0.01),#713,
'DISTANCE_ACCURACY_VALUE',
'Maximum model space distance between geometric entities at asserted c
onnectivities');
#711=(
GEOMETRIC_REPRESENTATION_CONTEXT(3)
GLOBAL_UNCERTAINTY_ASSIGNED_CONTEXT((#709))
GLOBAL_UNIT_ASSIGNED_CONTEXT((#713,#715,#716))
REPRESENTATION_CONTEXT('','3D')
);
#712=(
GEOMETRIC_REPRESENTATION_CONTEXT(3)
GLOBAL_UNCERTAINTY_ASSIGNED_CONTEXT((#710))
GLOBAL_UNIT_ASSIGNED_CONTEXT((#713,#715,#716))
REPRESENTATION_CONTEXT('','3D')
);
#713=(
LENGTH_UNIT()
NAMED_UNIT(*)
SI_UNIT(.MILLI.,.METRE.)
);
#714=(
LENGTH_UNIT()
NAMED_UNIT(*)
SI_UNIT(.CENTI.,.METRE.)
);
#715=(
NAMED_UNIT(*)
PLANE_ANGLE_UNIT()
SI_UNIT($,.RADIAN.)
);
#716=(
NAMED_UNIT(*)
SI_UNIT($,.STERADIAN.)
SOLID_ANGLE_UNIT()
);
#717=SHAPE_DEFINITION_REPRESENTATION(#718,#719);
#718=PRODUCT_DEFINITION_SHAPE('',$,#721);
#719=SHAPE_REPRESENTATION('',(#428),#711);
#720=PRODUCT_DEFINITION_CONTEXT('part definition',#725,'design');
#721=PRODUCT_DEFINITION('Draw_Pen','Draw_Pen',#722,#720);
#722=PRODUCT_DEFINITION_FORMATION('',$,#727);
#723=PRODUCT_RELATED_PRODUCT_CATEGORY('Draw_Pen','Draw_Pen',(#727));
#724=APPLICATION_PROTOCOL_DEFINITION('international standard',
'automotive_design',2009,#725);
#725=APPLICATION_CONTEXT(
'Core Data for Automotive Mechanical Design Process');
#726=PRODUCT_CONTEXT('part definition',#725,'mechanical');
#727=PRODUCT('Draw_Pen','Draw_Pen',$,(#726));
#728=PRESENTATION_STYLE_ASSIGNMENT((#730));
#729=PRESENTATION_STYLE_ASSIGNMENT((#731));
#730=SURFACE_STYLE_USAGE(.BOTH.,#734);
#731=SURFACE_STYLE_USAGE(.BOTH.,#735);
#732=SURFACE_STYLE_RENDERING_WITH_PROPERTIES($,#742,(#733));
#733=SURFACE_STYLE_TRANSPARENT(0.);
#734=SURFACE_SIDE_STYLE('',(#736,#732));
#735=SURFACE_SIDE_STYLE('',(#737));
#736=SURFACE_STYLE_FILL_AREA(#738);
#737=SURFACE_STYLE_FILL_AREA(#739);
#738=FILL_AREA_STYLE('',(#740));
#739=FILL_AREA_STYLE('',(#741));
#740=FILL_AREA_STYLE_COLOUR('',#742);
#741=FILL_AREA_STYLE_COLOUR('',#743);
#742=COLOUR_RGB('',0.749019607843137,0.749019607843137,0.749019607843137);
#743=COLOUR_RGB('',1.,1.,0.);
ENDSEC;
END-ISO-10303-21;
